{"title":"De Storm (2009) - HQ x264 AC3-5.1 Anamorphic PAL (720x436px)","uid":5349473,"size":1293132609,"categoryP":"video","categoryS":"hd___movies","magnet":"?xt=urn:btih:22a08b8856f54a06eda46895d8387d942e5876f8&amp;dn=De+Storm+%282009%29+-+HQ+x264+AC3-5.1+Anamorphic+PAL+%28720x436px%29&amp;tr=udp%3A%2F%2Ftracker.openbittorrent.com%3A80&amp;tr=udp%3A%2F%2Fopen.demonii.com%3A1337&amp;tr=udp%3A%2F%2Ftracker.coppersurfer.tk%3A6969&amp;tr=udp%3A%2F%2Fexodus.desync.com%3A6969","seeders":0,"leechers":1,"uploader":"bobdevis","files":-1,"time":1265742108,"description":"Gegarandeerd de beste DVDRip van De Storm op het net! Dubbele resolutie van een normale Divx-rip (720x436 vs. 640x272px) Bespaar je de 4GB download, maar geniet van volle kwaliteit!\n\nIMDB info:\n\nStorm, De (2009)\n\nUser Rating:6.5/10 - 310 votes\n\nNederland\nDrama\n96 minuten\n\nGeregisseerd door Ben Sombogaart\nMet Sylvia Hoeks, Barry Atsma en Monic Hendrickx\n\nDe Storm gaat over Julia (Sylvia Hoeks), een 18-jarige Zeeuwse boerendochter, die zwanger raakt van haar vriendje Koos, een vissersjongen. Koos schrikt zo van dit nieuws dat hij met de Noorderzon vertrekt. Julia staat er helemaal alleen voor in een vijandig dorp: de zwangerschap en de bevalling worden eerst veroordeeld en later genegeerd door haar famile en dorpsgenoten. In de nacht van 31 januari 1953 breken de dijken in Zeeland tijdens een verschrikkelijke februaristorm op meer dan honderd plaatsen en wordt de boerderij verzwolgen door een zondvloed. Julia komt samen met haar zoon in het water terecht en wordt - tegen haar wil - gered door de jonge luchtmachtsergeant Aldo (Barry Atsma), haar baby in het water achterlatend. Ze is ontroostbaar, hult zich in stilzwijgen en weigert met haar gehate redder te praten. Voorzichtig probeert Aldo in contact te komen met de jonge vrouw, ontrafelt stukje bij beetje haar achtergrond en besluit tenslotte om haar te helpen haar zoon te vinden.\n\nGeneral\nComplete name                    : De.Storm.(2009).hq.x264.AC3.Anamorphic.mkv\nFormat                           : Matroska\nFile size                        : 1.20 GiB\nDuration                         : 1h 32mn\nOverall bit rate                 : 1 856 Kbps\n\nVIDEO\nFormat                           : AVC (h264)\nCodec ID                         : V_MPEG4/ISO/AVC (h264)\nDuration                         : 1h 32mn\nBit rate                         : 1 371 Kbps\nNominal bit rate                 : 1 400 Kbps\nWidth                            : 720 pixels\nHeight                           : 436 pixels\nDisplay aspect ratio             : 2.35:1\nFrame rate                       : 25.000 fps\nResolution                       : 8 bits\nColorimetry                      : 4:2:0\nScan type                        : Progressive\nBits/(Pixel*Frame)               : 0.175\nStream size                      : 911 MiB (74%)\nWriting library                  : x264 core 79\n\nAUDIO\nFormat                           : AC-3\nFormat/Info                      : Audio Coding 3\nCodec ID                         : A_AC3\nDuration                         : 1h 32mn\nBit rate mode                    : Constant\nBit rate                         : 448 Kbps\nChannel(s)                       : 6 channels\nChannel positions                : Front: L C R, Surround: L R, LFE\nSampling rate                    : 48.0 KHz\nStream size                      : 298 MiB (24%)\nLanguage                         : Dutch\n\nSUBTITLES\nFormat                           : VobSub\nLanguage                         : Dutch\n","torrent":{"xt":"urn:btih:22a08b8856f54a06eda46895d8387d942e5876f8","amp;dn":"De+Storm+%282009%29+-+HQ+x264+AC3-5.1+Anamorphic+PAL+%28720x436px%29","amp;tr":["udp%3A%2F%2Ftracker.openbittorrent.com%3A80","udp%3A%2F%2Fopen.demonii.com%3A1337","udp%3A%2F%2Ftracker.coppersurfer.tk%3A6969","udp%3A%2F%2Fexodus.desync.com%3A6969"],"infoHash":"22a08b8856f54a06eda46895d8387d942e5876f8","infoHashBuffer":{"type":"Buffer","data":[34,160,139,136,86,245,74,6,237,164,104,149,216,56,125,148,46,88,118,248]},"announce":[],"urlList":[]}}